<mxfile host="app.diagrams.net" modified="2022-12-14T07:47:52.688Z" agent="5.0 (Macintosh; Intel Mac OS X 10_15_7) AppleWebKit/537.36 (KHTML, like Gecko) Chrome/108.0.0.0 Safari/537.36" etag="lKKSeRh68pMKecQeeBnh" version="20.6.2" type="github">
  <diagram id="rHzEewMp8PplibCEiFAW" name="Page-1">
    <mxGraphModel dx="1426" dy="737" grid="1" gridSize="10" guides="1" tooltips="1" connect="1" arrows="1" fold="1" page="1" pageScale="1" pageWidth="850" pageHeight="1100" math="0" shadow="0">
      <root>
        <mxCell id="0" />
        <mxCell id="1" parent="0" />
        <mxCell id="1G_hEg1pSeubn0hGRoc3-3" style="edgeStyle=orthogonalEdgeStyle;rounded=0;orthogonalLoop=1;jettySize=auto;html=1;" edge="1" parent="1" source="1G_hEg1pSeubn0hGRoc3-1" target="1G_hEg1pSeubn0hGRoc3-2">
          <mxGeometry relative="1" as="geometry" />
        </mxCell>
        <mxCell id="1G_hEg1pSeubn0hGRoc3-1" value="" style="rounded=1;whiteSpace=wrap;html=1;" vertex="1" parent="1">
          <mxGeometry x="80" y="180" width="120" height="60" as="geometry" />
        </mxCell>
        <mxCell id="1G_hEg1pSeubn0hGRoc3-2" value="" style="rounded=1;whiteSpace=wrap;html=1;" vertex="1" parent="1">
          <mxGeometry x="80" y="310" width="120" height="60" as="geometry" />
        </mxCell>
      </root>
    </mxGraphModel>
  </diagram>
</mxfile>
